HIERARCHY
ROOT Elbow
{
	OFFSET	0.00	0.00	0.00
	CHANNELS 6 Xposition Yposition Zposition Zrotation Xrotation Yrotation
	JOINT L_Wrist
	{
		OFFSET	 0.208349	 0.000000	 0.000000
		CHANNELS 3 Zrotation Xrotation Yrotation
		JOINT L_index_Proximal
		{
			OFFSET	 0.093499	 0.010637	-0.002084
			CHANNELS 3 Zrotation Xrotation Yrotation
			JOINT L_index_b
			{
				OFFSET	 0.033152	 0.000000	 0.000000
				CHANNELS 3 Zrotation Xrotation Yrotation
				JOINT L_index_c
				{
					OFFSET	 0.018651	 0.000000	 0.000000
					CHANNELS 3 Zrotation Xrotation Yrotation
					End Site
					{
						OFFSET	 0.018651	 0.000000	 0.000000
					}
				}
			}
		}
		JOINT L_middle_Proximal
		{
			OFFSET	 0.090632	-0.006115	-0.003750
			CHANNELS 3 Zrotation Xrotation Yrotation
			JOINT L_middle_b
			{
				OFFSET	 0.037194	 0.000000	 0.000000
				CHANNELS 3 Zrotation Xrotation Yrotation
				JOINT L_middle_c
				{
					OFFSET	 0.021943	 0.000000	 0.000000
					CHANNELS 3 Zrotation Xrotation Yrotation
					End Site
					{
						OFFSET	 0.021943	 0.000000	 0.000000
					}
				}
			}
		}
		JOINT L_pinky_Proximal
		{
			OFFSET	 0.074015	-0.035449	-0.000417
			CHANNELS 3 Zrotation Xrotation Yrotation
			JOINT L_pinky_b
			{
				OFFSET	 0.027285	 0.000000	 0.000000
				CHANNELS 3 Zrotation Xrotation Yrotation
				JOINT L_pinky_c
				{
					OFFSET	 0.015093	 0.000000	 0.000000
					CHANNELS 3 Zrotation Xrotation Yrotation
					End Site
					{
						OFFSET	 0.015093	 0.000000	 0.000000
					}
				}
			}
		}
		JOINT L_ring_Proximal
		{
			OFFSET	 0.082801	-0.021859	-0.003750
			CHANNELS 3 Zrotation Xrotation Yrotation
			JOINT L_ring_b
			{
				OFFSET	 0.034478	 0.000000	 0.000000
				CHANNELS 3 Zrotation Xrotation Yrotation
				JOINT L_ring_c
				{
					OFFSET	 0.021377	 0.000000	 0.000000
					CHANNELS 3 Zrotation Xrotation Yrotation
					End Site
					{
						OFFSET	 0.021377	 0.000000	 0.000000
					}
				}
			}
		}
		JOINT L_thumb_Proximal
		{
			OFFSET	 0.030306	 0.018528	 0.004584
			CHANNELS 3 Zrotation Xrotation Yrotation
			JOINT L_thumb_a
			{
				OFFSET	 0.038520	 0.000000	 0.000000
				CHANNELS 3 Zrotation Xrotation Yrotation
				JOINT L_thumb_b
				{
					OFFSET	 0.026310	 0.000000	 0.000000
					CHANNELS 3 Zrotation Xrotation Yrotation
					End Site
					{
						OFFSET	 0.026310	 0.000000	 0.000000
					}
				}
			}
		}
	}
}
MOTION
Frames:    12
Frame Time: 0.01666667
-0.182657	-0.378154	 0.725564	 40.471560	 34.245590	-155.110300	 14.737500	 3.798661	 22.120400	 5.058654	-3.008781	-49.760980	 1.914941	-0.747010	-42.617980	-1.059352	 0.190412	-20.378800	-12.218060	-7.409033	-38.291470	 0.473409	-0.208620	-47.563180	-1.407534	 0.425906	-33.669190	-27.287820	-19.710670	-23.495320	 2.508325	-0.849635	-37.419850	 2.173493	-0.667497	-34.141170	-18.348160	-11.578670	-26.577020	-0.049043	 0.016711	-37.627220	-0.059935	 0.014711	-27.573070	 74.092390	 36.555420	-65.989400	-2.706531	 0.278536	-11.749700	-3.724000	 1.265714	-37.532330
-0.182910	-0.377937	 0.725679	 40.447310	 34.357990	-155.060300	 14.752050	 3.799917	 22.128060	 5.051172	-3.011205	-49.868080	 1.914109	-0.749301	-42.753630	-1.077483	 0.194310	-20.444850	-12.254820	-7.389743	-38.417760	 0.377365	-0.167456	-47.858210	-1.450941	 0.440047	-33.741600	-27.265980	-19.716160	-23.424730	 2.476695	-0.837536	-37.363100	 2.092788	-0.643156	-34.162670	-18.380090	-11.568870	-26.610500	-0.079128	 0.026956	-37.616380	-0.093709	 0.022971	-27.545000	 74.173120	 36.542790	-65.919980	-2.821557	 0.291792	-11.806480	-3.654076	 1.255555	-37.914860
-0.182960	-0.377960	 0.725741	 40.455220	 34.385310	-155.052100	 14.761070	 3.804580	 22.156730	 5.039588	-3.009448	-49.944930	 1.901564	-0.744998	-42.785680	-1.100562	 0.198281	-20.424650	-12.266410	-7.380269	-38.579150	 0.269025	-0.120128	-48.126360	-1.460734	 0.443315	-33.763400	-27.252040	-19.719680	-23.485010	 2.473107	-0.836711	-37.379400	 2.051780	-0.630914	-34.181760	-18.385500	-11.567450	-26.683120	-0.097736	 0.033309	-37.636270	-0.118863	 0.029151	-27.559850	 74.233630	 36.556610	-65.836200	-2.879461	 0.297655	-11.800910	-3.672744	 1.269792	-38.133150
-0.182975	-0.377905	 0.725840	 40.434760	 34.476200	-154.995000	 14.799640	 3.813174	 22.209650	 5.078001	-3.048122	-50.220840	 1.953569	-0.768617	-42.950350	-1.121671	 0.201729	-20.390280	-12.199660	-7.399832	-38.925580	 0.272792	-0.123419	-48.686980	-1.549355	 0.472249	-33.900970	-27.230080	-19.725250	-23.546700	 2.437253	-0.824608	-37.380310	 1.970306	-0.605380	-34.156560	-18.418570	-11.557740	-26.866860	-0.073164	 0.024964	-37.681850	-0.122739	 0.030091	-27.552450	 74.445140	 36.549320	-65.619960	-3.022879	 0.313555	-11.841340	-3.638791	 1.280600	-38.766200
-0.182939	-0.377888	 0.725876	 40.427160	 34.510890	-154.973900	 14.788900	 3.816391	 22.229390	 5.086534	-3.060095	-50.335620	 1.923471	-0.760144	-43.123870	-1.160153	 0.209256	-20.448050	-12.165710	-7.412716	-38.999200	 0.272856	-0.124250	-48.965570	-1.571237	 0.480583	-34.012000	-27.207210	-19.730920	-23.401700	 2.476914	-0.834783	-37.245850	 2.064153	-0.632045	-34.045310	-18.406610	-11.561630	-26.901720	-0.073422	 0.025082	-37.727860	-0.137749	 0.033750	-27.538230	 74.481580	 36.563500	-65.561740	-3.087440	 0.321017	-11.869180	-3.635221	 1.283984	-38.895940
-0.182903	-0.378094	 0.725983	 40.429750	 34.518720	-154.952100	 14.758210	 3.823052	 22.270360	 5.044554	-3.053981	-50.619800	 1.857347	-0.736612	-43.262870	-1.256536	 0.226742	-20.457000	-12.140040	-7.418778	-39.195100	 0.134019	-0.061429	-49.249950	-1.646447	 0.503100	-33.980500	-27.146960	-19.745820	-23.254950	 2.471086	-0.832271	-37.222450	 2.019426	-0.617181	-33.985660	-18.383420	-11.569330	-27.005640	-0.095964	 0.032851	-37.793490	-0.196699	 0.048183	-27.528350	 74.520800	 36.575290	-65.503860	-3.133793	 0.327648	-11.934860	-3.625321	 1.284236	-39.001720
-0.182868	-0.378236	 0.726056	 40.432400	 34.515210	-154.951000	 14.735470	 3.827200	 22.295930	 5.003693	-3.039178	-50.756490	 1.842851	-0.731177	-43.279900	-1.306327	 0.235767	-20.460340	-12.116280	-7.426088	-39.314140	 0.093405	-0.042954	-49.389740	-1.690575	 0.516842	-33.996250	-27.119490	-19.752460	-23.118490	 2.492143	-0.837814	-37.158450	 2.063434	-0.628989	-33.902460	-18.364990	-11.575360	-27.061050	-0.113332	 0.038828	-37.826260	-0.228115	 0.055890	-27.530650	 74.483320	 36.584050	-65.531840	-3.100362	 0.323563	-11.913270	-3.652586	 1.288565	-38.853360
-0.182771	-0.378552	 0.726168	 40.434030	 34.471510	-154.924400	 14.678980	 3.826228	 22.289900	 5.026186	-3.061567	-50.910800	 1.852561	-0.732191	-43.128110	-1.375945	 0.247492	-20.392720	-12.059470	-7.439886	-39.751900	-0.000515	 0.000234	-49.686360	-1.766707	 0.540362	-34.010860	-27.072690	-19.763970	-23.055980	 2.505932	-0.841457	-37.117120	 1.988312	-0.603390	-33.760250	-18.352410	-11.579860	-27.187560	-0.163476	 0.056123	-37.896070	-0.298447	 0.073170	-27.550090	 74.457140	 36.603840	-65.532810	-3.073300	 0.318761	-11.840370	-3.643080	 1.274293	-38.547510
-0.182642	-0.378712	 0.726211	 40.424480	 34.461830	-154.912400	 14.665130	 3.825647	 22.286380	 5.021384	-3.067974	-51.058510	 1.880558	-0.740325	-42.973330	-1.408326	 0.252304	-20.312800	-12.065140	-7.431879	-39.963810	-0.027165	 0.012617	-49.836320	-1.779595	 0.544582	-34.027130	-27.061900	-19.766570	-23.029140	 2.500501	-0.839024	-37.092250	 1.967526	-0.595926	-33.698110	-18.376890	-11.572270	-27.235300	-0.187251	 0.064280	-37.893520	-0.313112	 0.076738	-27.541500	 74.432950	 36.631440	-65.520880	-3.041545	 0.314822	-11.816240	-3.614567	 1.258932	-38.395520
-0.182540	-0.378887	 0.726297	 40.386690	 34.453830	-154.887400	 14.630370	 3.825028	 22.282590	 5.133948	-3.147623	-51.296570	 2.048734	-0.799158	-42.615570	-1.437224	 0.255614	-20.168620	-11.968770	-7.462790	-40.454740	 0.005218	-0.002455	-50.332450	-1.746048	 0.536752	-34.173660	-27.039820	-19.772050	-23.034810	 2.518854	-0.844723	-37.073910	 1.982083	-0.598909	-33.622940	-18.388680	-11.568920	-27.341960	-0.184790	 0.063605	-37.988350	-0.420550	 0.103356	-27.615730	 74.412290	 36.720590	-65.420840	-3.039055	 0.311176	-11.689740	-3.477902	 1.196657	-37.964390
-0.182510	-0.378944	 0.726303	 40.355870	 34.468660	-154.867800	 14.624650	 3.825422	 22.285010	 5.191020	-3.196522	-51.545720	 2.144156	-0.828899	-42.267580	-1.454421	 0.256816	-20.026570	-11.897220	-7.485326	-40.861760	 0.056393	-0.026629	-50.555220	-1.715624	 0.525949	-34.084840	-27.027390	-19.775090	-23.011200	 2.556186	-0.855359	-36.998020	 2.082759	-0.626829	-33.496460	-18.386990	-11.570110	-27.512400	-0.213063	 0.073530	-38.079880	-0.480719	 0.117998	-27.581800	 74.399150	 36.747910	-65.397380	-3.008720	 0.306075	-11.614730	-3.431521	 1.169265	-37.623260
-0.182382	-0.379076	 0.726299	 40.318650	 34.457340	-154.839300	 14.604580	 3.826229	 22.290010	 5.320186	-3.289866	-51.826930	 2.221393	-0.851714	-41.950890	-1.534719	 0.269620	-19.927020	-11.769860	-7.529761	-41.460530	 0.014643	-0.006991	-51.042380	-1.763679	 0.540338	-34.064430	-27.007260	-19.780000	-22.988310	 2.567313	-0.858556	-36.976820	 2.094242	-0.629298	-33.446400	-18.380050	-11.573740	-27.880440	-0.255658	 0.088698	-38.268260	-0.601478	 0.147985	-27.643520	 74.433310	 36.780010	-65.316870	-2.984473	 0.299250	-11.449020	-3.437026	 1.157647	-37.219580
